<svg width="1440" height="1024" viewBox="0 0 1440 1024" fill="none" xmlns="http://www.w3.org/2000/svg">
<mask id="mask0_1899_44994" style="mask-type:alpha" maskUnits="userSpaceOnUse" x="-330" y="-238" width="1956" height="1262">
<path d="M758.662 303.828C758.662 451.088 661.297 570.466 541.191 570.466C421.086 570.466 -329.32 53.9684 -329.32 -93.2915C-329.32 -240.551 748.867 -37.8208 868.973 -37.8208C989.078 -37.8208 758.662 156.568 758.662 303.828Z" fill="url(#paint0_linear_1899_44994)"/>
<path d="M843 522.516C843 619.433 745.603 698 625.458 698C505.312 698 -164 675.409 -164 578.492C-164 481.575 -114.525 252 5.61992 252C125.765 252 843 425.598 843 522.516Z" fill="url(#paint1_radial_1899_44994)"/>
<path d="M1089.82 304.232C1413.88 596.92 1264.19 449.832 1542.53 442.422C1586.19 450.833 1660.32 451.233 1607.51 385.541C1541.49 303.427 1562.77 245.429 1480.27 155.965C1397.76 66.5009 1347.52 -24.3929 1222.96 -166.683C1098.41 -308.973 1088.83 -191.679 948.406 -202.798C807.986 -213.917 872.032 -196.26 678.288 10.1971C484.544 216.654 765.753 11.543 1089.82 304.232Z" fill="#D9D9D9"/>
<path d="M783.963 430.674C349.992 463.936 559.408 453.67 381.53 593.287C346.417 611.081 297.259 647.245 381.53 649.545C486.87 652.419 516.516 687.734 638.255 685.681C759.994 683.628 861.548 698 1050.78 698C1240.01 698 1158.01 642.974 1258.94 578.915C1359.86 514.855 1304.35 538.672 1276.6 355.116C1248.84 171.56 1217.93 397.412 783.963 430.674Z" fill="#D9D9D9"/>
</mask>
<g mask="url(#mask0_1899_44994)">
<line x1="-233.012" y1="609.547" x2="1278.56" y2="609.547" stroke="white" stroke-opacity="0.04" stroke-width="1.2607"/>
<line x1="-233.012" y1="932.286" x2="1278.56" y2="932.286" stroke="white" stroke-opacity="0.04" stroke-width="1.2607"/>
<line x1="-233.012" y1="286.809" x2="1278.56" y2="286.809" stroke="white" stroke-opacity="0.04" stroke-width="1.2607"/>
<line x1="-233.012" y1="448.177" x2="1278.56" y2="448.177" stroke="white" stroke-opacity="0.04" stroke-width="1.2607"/>
<line x1="-233.012" y1="770.915" x2="1278.56" y2="770.915" stroke="white" stroke-opacity="0.04" stroke-width="1.2607"/>
<line x1="-233.012" y1="125.439" x2="1278.56" y2="125.439" stroke="white" stroke-opacity="0.04" stroke-width="1.2607"/>
<line x1="-233.012" y1="528.862" x2="1278.56" y2="528.862" stroke="white" stroke-opacity="0.04" stroke-width="1.2607"/>
<line x1="-233.012" y1="851.6" x2="1278.56" y2="851.6" stroke="white" stroke-opacity="0.04" stroke-width="1.2607"/>
<line x1="-233.012" y1="206.124" x2="1278.56" y2="206.124" stroke="white" stroke-opacity="0.04" stroke-width="1.2607"/>
<line x1="-233.012" y1="1012.97" x2="1278.56" y2="1012.97" stroke="white" stroke-opacity="0.04" stroke-width="1.2607"/>
<line x1="-233.012" y1="367.492" x2="1278.56" y2="367.492" stroke="white" stroke-opacity="0.04" stroke-width="1.2607"/>
<line x1="-233.012" y1="690.232" x2="1278.56" y2="690.232" stroke="white" stroke-opacity="0.04" stroke-width="1.2607"/>
<line x1="-233.012" y1="44.7539" x2="1278.56" y2="44.7539" stroke="white" stroke-opacity="0.04" stroke-width="1.2607"/>
<line x1="459.744" y1="-64.2959" x2="459.744" y2="1103.11" stroke="white" stroke-opacity="0.04" stroke-width="1.2607"/>
<line x1="137.005" y1="-64.2959" x2="137.005" y2="1103.11" stroke="white" stroke-opacity="0.04" stroke-width="1.2607"/>
<line x1="782.478" y1="-64.2959" x2="782.478" y2="1103.11" stroke="white" stroke-opacity="0.04" stroke-width="1.2607"/>
<line x1="1105.22" y1="-64.2959" x2="1105.22" y2="1103.11" stroke="white" stroke-opacity="0.04" stroke-width="1.2607"/>
<line x1="621.111" y1="-64.2959" x2="621.111" y2="1103.11" stroke="white" stroke-opacity="0.04" stroke-width="1.2607"/>
<line x1="298.373" y1="-64.2959" x2="298.372" y2="1103.11" stroke="white" stroke-opacity="0.04" stroke-width="1.2607"/>
<line x1="943.849" y1="-64.2959" x2="943.849" y2="1103.11" stroke="white" stroke-opacity="0.04" stroke-width="1.2607"/>
<line x1="1266.59" y1="-64.2959" x2="1266.59" y2="1103.11" stroke="white" stroke-opacity="0.04" stroke-width="1.2607"/>
<line x1="540.427" y1="-64.2959" x2="540.427" y2="1103.11" stroke="white" stroke-opacity="0.04" stroke-width="1.2607"/>
<line x1="217.685" y1="-64.2959" x2="217.685" y2="1103.11" stroke="white" stroke-opacity="0.04" stroke-width="1.2607"/>
<line x1="863.166" y1="-64.2959" x2="863.165" y2="1103.11" stroke="white" stroke-opacity="0.04" stroke-width="1.2607"/>
<line x1="1185.9" y1="-64.2959" x2="1185.9" y2="1103.11" stroke="white" stroke-opacity="0.04" stroke-width="1.2607"/>
<line x1="56.3218" y1="-64.2959" x2="56.3217" y2="1103.11" stroke="white" stroke-opacity="0.04" stroke-width="1.2607"/>
<line x1="701.798" y1="-64.2959" x2="701.798" y2="1103.11" stroke="white" stroke-opacity="0.04" stroke-width="1.2607"/>
<line x1="379.056" y1="-64.2959" x2="379.056" y2="1103.11" stroke="white" stroke-opacity="0.04" stroke-width="1.2607"/>
<line x1="1024.53" y1="-64.2959" x2="1024.53" y2="1103.11" stroke="white" stroke-opacity="0.04" stroke-width="1.2607"/>
<line x1="1347.27" y1="-64.2959" x2="1347.27" y2="1103.11" stroke="white" stroke-opacity="0.04" stroke-width="1.2607"/>
</g>
<defs>
<linearGradient id="paint0_linear_1899_44994" x1="190.087" y1="-19.5406" x2="644.569" y2="222.513" gradientUnits="userSpaceOnUse">
<stop stop-color="white"/>
<stop offset="1" stop-color="white" stop-opacity="0"/>
</linearGradient>
<radialGradient id="paint1_radial_1899_44994" cx="0" cy="0" r="1" gradientTransform="matrix(677.219 -250.988 655.667 765.782 155.062 526.635)" gradientUnits="userSpaceOnUse">
<stop stop-color="white"/>
<stop offset="1" stop-color="white" stop-opacity="0"/>
</radialGradient>
</defs>
</svg>
