<svg width="4140" height="1033" viewBox="0 0 4140 1033" fill="none" xmlns="http://www.w3.org/2000/svg">
<path d="M2621.59 594.044V85.7231L2823.17 143.865V236.362H2993.33V426.643H2823.17V560.231C2823.17 606.634 2824.24 657.016 2854.89 691.595C2898.99 741.348 2969.1 741.954 3006.42 733.207V926.131C2806.44 952.014 2693.99 827.094 2645.17 725.212C2625.75 684.684 2621.59 639.065 2621.59 594.044Z" fill="#F9FAFB"/>
<path d="M3118.99 594.044V85.7231L3320.56 143.865V236.362H3490.72V426.643H3320.56V560.231C3320.56 606.634 3321.63 657.016 3352.29 691.595C3396.39 741.348 3466.49 741.954 3503.81 733.207V926.131C3303.83 952.014 3191.38 827.094 3142.57 725.212C3123.15 684.684 3118.99 639.065 3118.99 594.044Z" fill="#F9FAFB"/>
<path d="M1433.08 936.703H1228.88V561.426C1228.88 445.932 1281.57 360.58 1326.14 313.313C1348.29 289.823 1372.95 268.333 1400 250.838C1510.37 179.454 1674.37 204.084 1749.84 228.434L1666.07 416.072C1490.15 368.486 1437.44 493.147 1433.08 561.426V936.703Z" fill="#F9FAFB"/>
<path d="M2108.49 194.078C2312.9 194.078 2478.77 357.119 2480.21 558.783L2480.23 928.774H2291.74V579.925H2290.81C2291.42 573.842 2291.74 567.671 2291.74 561.426C2291.74 460.715 2209.7 379.073 2108.49 379.073C2007.28 379.073 1925.24 460.715 1925.24 561.426C1925.24 662.137 2007.28 743.779 2108.49 743.779C2113.21 743.779 2117.89 743.596 2122.53 743.247L2150.03 926.493C2136.39 927.992 2122.53 928.774 2108.49 928.774C1903.18 928.774 1736.75 764.307 1736.75 561.426C1736.75 358.545 1903.18 194.078 2108.49 194.078Z" fill="#F9FAFB"/>
<path d="M3647.8 88.3659L3836.28 141.222V939.345H3647.8V88.3659Z" fill="#F9FAFB"/>
<path d="M3951.47 749.064H4139.95V939.345H3951.47V749.064Z" fill="#F9FAFB"/>
<path d="M492.475 0C764.46 0.000199286 984.948 220.489 984.948 492.475C984.948 735.602 808.766 937.579 577.107 977.702C534.97 927.968 491.169 832.238 543.375 714.088C554.319 692.2 589.34 647.194 641.87 642.27C712.749 627.034 853.043 573.561 864.803 479.245C865.537 473.354 862.992 467.616 858.496 463.738C786.41 401.563 629.232 293.777 522.855 316.005L520.058 317.915C512.802 247.669 453.434 192.886 381.27 192.886C304.207 192.886 241.735 255.357 241.735 332.42C241.736 386.417 272.408 433.25 317.28 456.447L315.605 457.592C231.573 543.674 104.553 764.047 267.834 957.589L60.9463 1032.62C59.3815 1033.19 57.8489 1031.7 58.3623 1030.12L126.075 821.545C47.6915 734.327 0.000146081 618.97 0 492.475C0 220.489 220.489 0.000144748 492.475 0ZM627.905 389.877C650.571 389.877 668.944 408.252 668.944 430.917C668.944 453.582 650.57 471.956 627.905 471.956C605.24 471.956 586.866 453.582 586.865 430.917C586.865 408.252 605.24 389.877 627.905 389.877Z" fill="#F9FAFB"/>
</svg>
