<svg width="113" height="118" viewBox="0 0 113 118" fill="none" xmlns="http://www.w3.org/2000/svg">
<path d="M56.3877 0C87.5296 0.000143397 112.775 25.2458 112.775 56.3877C112.775 84.2246 92.6035 107.349 66.0801 111.944C61.2557 106.249 56.2398 95.29 62.2168 81.7627C63.4701 79.2565 67.48 74.1041 73.4941 73.54C79.5353 72.2414 89.981 68.5166 95.4814 62.2432C99.3953 57.7787 96.5929 51.4468 91.7734 47.9795C82.5704 41.3589 69.4269 34.1852 59.8672 36.1826L59.5449 36.4014C58.714 28.3585 51.9168 22.086 43.6543 22.0859C34.8309 22.0861 27.6778 29.2391 27.6777 38.0625C27.6779 44.2454 31.1908 49.6078 36.3291 52.2637L36.1377 52.3945C26.5163 62.2509 11.9728 87.4827 30.667 109.643L10.3848 116.999C8.8196 117.566 7.28678 116.085 7.80078 114.501L14.4346 94.0635C5.46066 84.0774 1.53424e-05 70.8704 0 56.3877C4.12329e-05 25.2457 25.2457 0 56.3877 0ZM71.8945 44.6416C74.4897 44.6416 76.5938 46.7457 76.5938 49.3408C76.5934 51.9357 74.4895 54.0391 71.8945 54.0391C69.2998 54.0388 67.1957 51.9355 67.1953 49.3408C67.1953 46.7458 69.2996 44.6419 71.8945 44.6416Z" fill="#171717"/>
</svg>
